<svg viewBox="0 0 1000 320" xmlns="http://www.w3.org/2000/svg" font-family="'Avenir Next', 'Segoe UI', -apple-system, Helvetica, Arial, sans-serif">
  <rect x="1" y="1" width="998" height="318" rx="16" fill="#ffffff" stroke="#E6E6EC"/>
  <text x="40" y="46" fill="#2E2D3A" font-size="19" font-weight="800">Agents &amp; automation</text>
  <text x="40" y="68" fill="#8A8F9C" font-size="13">Built around a client's real bottlenecks, once the foundations are in place.</text>
  <g>
    <g transform="translate(40,92)">
      <rect width="280" height="196" rx="14" fill="#F4FAFD" stroke="#D4E9F5"/>
      <rect x="22" y="22" width="46" height="46" rx="12" fill="#E1F0FA"/>
      <rect x="32" y="34" width="26" height="18" rx="3" fill="none" stroke="#3D99D4" stroke-width="2"/><rect x="36" y="38" width="8" height="3" rx="1.5" fill="#3D99D4"/><rect x="36" y="44" width="14" height="3" rx="1.5" fill="#3D99D4"/>
      <text x="22" y="106" fill="#2E2D3A" font-size="16.5" font-weight="700">Internal AI tools</text>
      <text x="22" y="134" fill="#6B7280" font-size="12.5">Custom interfaces, dashboards</text>
      <text x="22" y="152" fill="#6B7280" font-size="12.5">and assistants for a specific</text>
      <text x="22" y="170" fill="#6B7280" font-size="12.5">job.</text>
    </g>
    <g transform="translate(360,92)">
      <rect width="280" height="196" rx="14" fill="#F4FAFD" stroke="#D4E9F5"/>
      <rect x="22" y="22" width="46" height="46" rx="12" fill="#E1F0FA"/>
      <circle cx="45" cy="45" r="13" fill="none" stroke="#3D99D4" stroke-width="2.2"/><line x1="45" y1="45" x2="45" y2="37" stroke="#3D99D4" stroke-width="2.2" stroke-linecap="round"/><line x1="45" y1="45" x2="51" y2="48" stroke="#3D99D4" stroke-width="2.2" stroke-linecap="round"/>
      <text x="22" y="106" fill="#2E2D3A" font-size="16.5" font-weight="700">Autonomous agents</text>
      <text x="22" y="134" fill="#6B7280" font-size="12.5">Always-on agents that prepare</text>
      <text x="22" y="152" fill="#6B7280" font-size="12.5">work before it is asked:</text>
      <text x="22" y="170" fill="#6B7280" font-size="12.5">research, monitoring, reporting.</text>
    </g>
    <g transform="translate(680,92)">
      <rect width="280" height="196" rx="14" fill="#F4FAFD" stroke="#D4E9F5"/>
      <rect x="22" y="22" width="46" height="46" rx="12" fill="#E1F0FA"/>
      <path d="M36 32 h14 l6 6 v18 a2 2 0 0 1 -2 2 h-18 a2 2 0 0 1 -2 -2 v-22 a2 2 0 0 1 2 -2 z" fill="none" stroke="#3D99D4" stroke-width="2" stroke-linejoin="round"/><line x1="38" y1="48" x2="50" y2="48" stroke="#3D99D4" stroke-width="2"/>
      <text x="22" y="106" fill="#2E2D3A" font-size="16.5" font-weight="700">Documents &amp; on-device</text>
      <text x="22" y="134" fill="#6B7280" font-size="12.5">Document scraping, RPA,</text>
      <text x="22" y="152" fill="#6B7280" font-size="12.5">private transcription and</text>
      <text x="22" y="170" fill="#6B7280" font-size="12.5">offline AI for sensitive work.</text>
    </g>
  </g>
</svg>
